<?xml version="1.0" standalone="no"?>
<!DOCTYPE svg PUBLIC "-//W3C//DTD SVG 20010904//EN"
 "http://www.w3.org/TR/2001/REC-SVG-20010904/DTD/svg10.dtd">
<svg version="1.0" xmlns="http://www.w3.org/2000/svg"
 width="512.000000pt" height="512.000000pt" viewBox="0 0 512.000000 512.000000"
 preserveAspectRatio="xMidYMid meet">

<g transform="translate(0.000000,512.000000) scale(0.100000,-0.100000)"
fill="#000000" stroke="none">
<path d="M78 5099 c-23 -12 -46 -35 -58 -59 -20 -39 -20 -54 -20 -2480 0
-2427 0 -2441 20 -2480 13 -26 34 -47 60 -60 39 -20 53 -20 2480 -20 2427 0
2441 0 2480 20 26 13 47 34 60 60 20 39 20 53 20 2480 0 2427 0 2441 -20 2480
-13 26 -34 47 -60 60 -39 20 -53 20 -2482 20 -2413 -1 -2443 -1 -2480 -21z
m722 -1729 c0 -1405 1 -1452 19 -1488 11 -22 35 -46 59 -60 l40 -22 1641 0
c1592 0 1643 1 1679 19 22 11 46 35 60 59 l22 40 0 1451 0 1451 250 0 250 0 0
-2260 0 -2260 -2260 0 -2260 0 0 2260 0 2260 250 0 250 0 0 -1450z m3220 320
l0 -1129 -126 84 c-287 193 -618 322 -979 382 -156 26 -554 26 -710 0 -373
-62 -698 -190 -997 -394 l-108 -73 0 1130 0 1130 1460 0 1460 0 0 -1130z
m-1232 -951 c437 -47 850 -234 1184 -534 38 -34 48 -50 48 -74 l0 -31 -655 0
-655 0 0 118 c0 129 -12 168 -64 207 -38 28 -134 28 -172 0 -52 -39 -64 -78
-64 -207 l0 -118 -655 0 -655 0 0 30 c0 22 12 40 50 76 302 283 747 485 1170
533 110 12 356 13 468 0z"/>
<path d="M1145 1486 c-84 -21 -147 -57 -210 -121 -259 -258 -118 -695 244
-757 142 -24 282 21 386 126 178 179 178 454 1 632 -114 114 -269 158 -421
120z m175 -306 c45 -23 80 -80 80 -130 0 -76 -74 -150 -151 -150 -46 0 -108
39 -130 82 -37 72 -14 151 57 194 48 29 92 30 144 4z"/>
<path d="M2088 1479 c-43 -22 -78 -81 -78 -129 0 -48 33 -103 78 -128 55 -30
184 -32 242 -2 45 23 80 80 80 130 0 50 -35 107 -80 130 -55 28 -189 28 -242
-1z"/>
<path d="M2788 1479 c-43 -22 -78 -81 -78 -129 0 -48 33 -103 78 -128 55 -30
184 -32 242 -2 45 23 80 80 80 130 0 50 -35 107 -80 130 -55 28 -189 28 -242
-1z"/>
<path d="M3765 1486 c-83 -20 -146 -56 -211 -120 -136 -137 -171 -337 -87
-514 35 -75 131 -170 206 -205 221 -104 480 -20 590 191 95 181 65 384 -78
528 -113 114 -266 158 -420 120z m175 -306 c45 -23 80 -80 80 -131 0 -74 -76
-149 -151 -149 -46 0 -108 39 -130 82 -37 72 -14 151 57 194 48 29 92 30 144
4z"/>
<path d="M2088 879 c-43 -22 -78 -81 -78 -129 0 -48 33 -103 78 -128 55 -30
184 -32 242 -2 45 23 80 80 80 130 0 50 -35 107 -80 130 -55 28 -189 28 -242
-1z"/>
<path d="M2788 879 c-43 -22 -78 -81 -78 -129 0 -48 33 -103 78 -128 55 -30
184 -32 242 -2 45 23 80 80 80 130 0 50 -35 107 -80 130 -55 28 -189 28 -242
-1z"/>
<path d="M2495 4506 c-16 -8 -42 -26 -57 -42 -34 -38 -368 -911 -368 -963 0
-55 31 -103 83 -129 90 -47 176 -4 217 110 13 35 28 69 33 76 7 9 51 12 157
12 106 0 150 -3 157 -12 5 -7 20 -41 33 -76 39 -108 115 -152 205 -117 55 21
87 63 92 124 4 40 -16 99 -162 486 -92 242 -175 454 -186 472 -37 60 -136 89
-204 59z m89 -583 c9 -26 16 -48 16 -50 0 -2 -18 -3 -41 -3 -29 0 -39 4 -35
13 2 6 10 29 17 50 7 20 16 37 20 37 4 0 14 -21 23 -47z"/>
<path d="M1473 3590 c-76 -46 -87 -107 -44 -240 34 -106 63 -144 124 -161 88
-24 187 50 187 140 0 50 -57 215 -82 238 -53 48 -129 58 -185 23z"/>
<path d="M3505 3598 c-47 -26 -66 -55 -95 -145 -32 -100 -37 -142 -19 -176 36
-70 109 -106 176 -88 61 17 90 55 124 161 43 133 32 194 -44 240 -36 22 -110
26 -142 8z"/>
</g>
</svg>
