<?xml version="1.0" encoding="UTF-8"?>
<!DOCTYPE svg PUBLIC "-//W3C//DTD SVG 1.1//EN" "http://www.w3.org/Graphics/SVG/1.1/DTD/svg11.dtd">

<svg xmlns="http://www.w3.org/2000/svg" xmlns:xlink="http://www.w3.org/1999/xlink" width="223.5px" height="264.1px" viewbox="0 0 223.5 264.1" version="1.1">
  <title>TPS63070_BUCKBOOST_RNM_A_top: null</title>
  <desc>TPS63070_BUCKBOOST_RNM_A WebTHERM&amp;reg; Board Layout file</desc>
  <g id="board" fill-opacity="1" transform="scale(0.1016,-0.1016) translate(0,-2600.0)">
    <rect x="0" y="0" width="2200" height="2600" stroke="#006600" stroke-width="0" fill="#006600" type="Fill" layer="PCB" />
    <polygon net="0" points="2160,40 720,40 720,100 1120,100 1120,1220 1120,1255 1061,1255 1060,1255 1060,1255 1041,1255 1040,1255 1039,1255 1021,1255 1020,1255 1020,1255 1000,1255 1000,1250 1000,1245 1000,1230 985,1230 980,1235 980,1284 985,1290 1000,1290 1000,1265 1019,1265 1020,1264 1022,1265 1037,1265 1040,1264 1043,1265 1057,1265 1060,1264 1063,1265 1114,1265 1114,1265 1114,1265 1115,1265 1122,1265 1211,1265 1213,1265 1213,1265 1214,1265 1214,1264 1214,1264 1216,1262 1220,1259 1220,1090 1470,1090 1470,1420 1220,1420 1220,1275 1216,1272 1214,1270 1214,1270 1214,1270 1213,1270 1213,1270 1211,1270 1125,1270 1120,1270 1120,1272 1120,1273 1120,2500 710,2500 710,40 40,40 40,2560 2160,2560" stroke-width="0.0" stroke="#ff9900" fill="#ff9900" stroke-linecap="round" stroke-linejoin="round" opacity="1.0" layer="TOP" />
    <polygon net="0" points="158,1435 143,1433 128,1429 115,1422 103,1412 93,1400 86,1387 82,1373 80,1358 82,1342 86,1328 93,1315 103,1303 115,1293 128,1286 143,1282 158,1280 173,1282 187,1286 201,1293 212,1303 222,1315 229,1328 233,1342 235,1358 233,1373 229,1387 222,1400 212,1412 201,1422 187,1429 173,1433" stroke-width="0.0" stroke="#006600" fill="#006600" stroke-linecap="round" stroke-linejoin="round" opacity="1.0" layer="TOP" />
    <polygon net="13" points="1070,1295 1070,1275 1010,1275 1010,1277 1010,1278 1010,1279 1010,1290 1010,1291 1010,1295" stroke-width="0.0" stroke="#ff9900" fill="#ff9900" stroke-linecap="round" stroke-linejoin="round" opacity="1.0" layer="TOP" />
    <polygon net="0" points="880,1290 840,1290 840,1290 839,1290 798,1290 798,1290 750,1290 750,1360 880,1360" stroke-width="0.0" stroke="#ff9900" fill="#ff9900" stroke-linecap="round" stroke-linejoin="round" opacity="1.0" layer="TOP" />
    <polygon net="14" points="1070,1235 1070,1230 1070,1225 1012,1225 1011,1228 1010,1230 1010,1241 1010,1242 1010,1243 1010,1244 1070,1244" stroke-width="0.0" stroke="#ff9900" fill="#ff9900" stroke-linecap="round" stroke-linejoin="round" opacity="1.0" layer="TOP" />
    <polygon net="3" points="1109,1315 1104,1310 1016,1310 1012,1315 1012,1352 1011,1358 1010,1360 1010,1400 950,1400 950,1500 810,1500 720,1500 720,2489 1109,2489" stroke-width="0.0" stroke="#ff9900" fill="#ff9900" stroke-linecap="round" stroke-linejoin="round" opacity="1.0" layer="TOP" />
    <polygon net="9" points="1109,1215 1109,110 735,110 735,110 720,110 720,689 810,689 810,990 810,1000 830,1000 856,1000 856,1090 1010,1090 1010,1110 1010,1190 1010,1197 1011,1199 1012,1204 1012,1209 1018,1214 1070,1214 1070,1215 1071,1215" stroke-width="0.0" stroke="#ff9900" fill="#ff9900" stroke-linecap="round" stroke-linejoin="round" opacity="1.0" layer="TOP" />
    <polygon net="13" points="1450,1270 1240,1270 1240,1400 1450,1400" stroke-width="0.0" stroke="#ff9900" fill="#ff9900" stroke-linecap="round" stroke-linejoin="round" opacity="1.0" layer="TOP" />
    <polygon net="14" points="1450,1110 1240,1110 1240,1250 1450,1250" stroke-width="0.0" stroke="#ff9900" fill="#ff9900" stroke-linecap="round" stroke-linejoin="round" opacity="1.0" layer="TOP" />
    <polygon net="14" points="1273,1194 1273,1232 1406,1232 1406,1194" stroke-width="0.0" stroke="#ff9900" fill="#ff9900" stroke-linecap="round" stroke-linejoin="round" opacity="1.0" layer="TOP" />
    <polygon net="13" points="1273,1287 1273,1325 1406,1325 1406,1287" stroke-width="0.0" stroke="#ff9900" fill="#ff9900" stroke-linecap="round" stroke-linejoin="round" opacity="1.0" layer="TOP" />
    <polygon net="7" points="763,1031 763,1092 825,1092 825,1031" stroke-width="0.0" stroke="#ff9900" fill="#ff9900" stroke-linecap="round" stroke-linejoin="round" opacity="1.0" layer="TOP" />
    <polygon net="0" points="763,1107 763,1168 825,1168 825,1107" stroke-width="0.0" stroke="#ff9900" fill="#ff9900" stroke-linecap="round" stroke-linejoin="round" opacity="1.0" layer="TOP" />
    <polygon net="9" points="868,1028 868,1089 930,1089 930,1028" stroke-width="0.0" stroke="#ff9900" fill="#ff9900" stroke-linecap="round" stroke-linejoin="round" opacity="1.0" layer="TOP" />
    <polygon net="7" points="868,1104 868,1165 930,1165 930,1104" stroke-width="0.0" stroke="#ff9900" fill="#ff9900" stroke-linecap="round" stroke-linejoin="round" opacity="1.0" layer="TOP" />
    <polygon net="3" points="741,1418 741,1480 802,1480 802,1418" stroke-width="0.0" stroke="#ff9900" fill="#ff9900" stroke-linecap="round" stroke-linejoin="round" opacity="1.0" layer="TOP" />
    <polygon net="10" points="817,1418 817,1480 878,1480 878,1418" stroke-width="0.0" stroke="#ff9900" fill="#ff9900" stroke-linecap="round" stroke-linejoin="round" opacity="1.0" layer="TOP" />
    <line net="10" x1="825" y1="1450" x2="848" y2="1450" stroke-width="10" stroke="#ff9900" stroke-linecap="round" stroke-linejoin="round" opacity="1.0" layer="TOP" />
    <line net="3" x1="771" y1="1450" x2="795" y2="1450" stroke-width="10" stroke="#ff9900" stroke-linecap="round" stroke-linejoin="round" opacity="1.0" layer="TOP" />
    <line net="7" x1="888" y1="1138" x2="903" y2="1138" stroke-width="10" stroke="#ff9900" stroke-linecap="round" stroke-linejoin="round" opacity="1.0" layer="TOP" />
    <line net="7" x1="900" y1="1110" x2="900" y2="1135" stroke-width="10" stroke="#ff9900" stroke-linecap="round" stroke-linejoin="round" opacity="1.0" layer="TOP" />
    <line net="7" x1="903" y1="1138" x2="968" y2="1138" stroke-width="10" stroke="#ff9900" stroke-linecap="round" stroke-linejoin="round" opacity="1.0" layer="TOP" />
    <line net="7" x1="900" y1="1135" x2="903" y2="1138" stroke-width="10" stroke="#ff9900" stroke-linecap="round" stroke-linejoin="round" opacity="1.0" layer="TOP" />
    <line net="7" x1="795" y1="1061" x2="795" y2="1085" stroke-width="10" stroke="#ff9900" stroke-linecap="round" stroke-linejoin="round" opacity="1.0" layer="TOP" />
    <line net="0" x1="795" y1="1115" x2="795" y2="1138" stroke-width="10" stroke="#ff9900" stroke-linecap="round" stroke-linejoin="round" opacity="1.0" layer="TOP" />
    <line net="17" x1="840" y1="1251" x2="841" y2="1250" stroke-width="10" stroke="#ff9900" stroke-linecap="round" stroke-linejoin="round" opacity="1.0" layer="TOP" />
    <line net="17" x1="840" y1="1251" x2="840" y2="1275" stroke-width="10" stroke="#ff9900" stroke-linecap="round" stroke-linejoin="round" opacity="1.0" layer="TOP" />
    <line net="17" x1="840" y1="1249" x2="840" y2="1251" stroke-width="10" stroke="#ff9900" stroke-linecap="round" stroke-linejoin="round" opacity="1.0" layer="TOP" />
    <line net="0" x1="1152" y1="1122" x2="1165" y2="1110" stroke-width="10" stroke="#ff9900" stroke-linecap="round" stroke-linejoin="round" opacity="1.0" layer="TOP" />
    <line net="0" x1="1152" y1="1122" x2="1152" y2="1130" stroke-width="10" stroke="#ff9900" stroke-linecap="round" stroke-linejoin="round" opacity="1.0" layer="TOP" />
    <line net="0" x1="1152" y1="1130" x2="1215" y2="1192" stroke-width="10" stroke="#ff9900" stroke-linecap="round" stroke-linejoin="round" opacity="1.0" layer="TOP" />
    <line net="0" x1="1215" y1="1192" x2="1215" y2="1270" stroke-width="10" stroke="#ff9900" stroke-linecap="round" stroke-linejoin="round" opacity="1.0" layer="TOP" />
    <line net="0" x1="1123" y1="1270" x2="1123" y2="1288" stroke-width="10" stroke="#ff9900" stroke-linecap="round" stroke-linejoin="round" opacity="1.0" layer="TOP" />
    <line net="0" x1="1123" y1="1263" x2="1123" y2="1270" stroke-width="10" stroke="#ff9900" stroke-linecap="round" stroke-linejoin="round" opacity="1.0" layer="TOP" />
    <line net="0" x1="1123" y1="1270" x2="1215" y2="1270" stroke-width="10" stroke="#ff9900" stroke-linecap="round" stroke-linejoin="round" opacity="1.0" layer="TOP" />
    <line net="0" x1="1171" y1="920" x2="1171" y2="950" stroke-width="10" stroke="#ff9900" stroke-linecap="round" stroke-linejoin="round" opacity="1.0" layer="TOP" />
    <line net="0" x1="1171" y1="259" x2="1171" y2="920" stroke-width="10" stroke="#ff9900" stroke-linecap="round" stroke-linejoin="round" opacity="1.0" layer="TOP" />
    <line net="0" x1="1120" y1="1260" x2="1123" y2="1263" stroke-width="10" stroke="#ff9900" stroke-linecap="round" stroke-linejoin="round" opacity="1.0" layer="TOP" />
    <line net="0" x1="1029" y1="1260" x2="1120" y2="1260" stroke-width="10" stroke="#ff9900" stroke-linecap="round" stroke-linejoin="round" opacity="1.0" layer="TOP" />
    <line net="9" x1="1025" y1="1204" x2="1083" y2="1146" stroke-width="10" stroke="#ff9900" stroke-linecap="round" stroke-linejoin="round" opacity="1.0" layer="TOP" />
    <line net="9" x1="1083" y1="1026" x2="1083" y2="1146" stroke-width="10" stroke="#ff9900" stroke-linecap="round" stroke-linejoin="round" opacity="1.0" layer="TOP" />
    <line net="10" x1="997" y1="1315" x2="997" y2="1352" stroke-width="10" stroke="#ff9900" stroke-linecap="round" stroke-linejoin="round" opacity="1.0" layer="TOP" />
    <line net="3" x1="1025" y1="1315" x2="1026" y2="1315" stroke-width="10" stroke="#ff9900" stroke-linecap="round" stroke-linejoin="round" opacity="1.0" layer="TOP" />
    <line net="3" x1="1025" y1="1315" x2="1026" y2="1315" stroke-width="10" stroke="#ff9900" stroke-linecap="round" stroke-linejoin="round" opacity="1.0" layer="TOP" />
    <line net="15" x1="730" y1="820" x2="730" y2="1370" stroke-width="10" stroke="#ff9900" stroke-linecap="round" stroke-linejoin="round" opacity="1.0" layer="TOP" />
    <line net="15" x1="730" y1="820" x2="763" y2="787" stroke-width="10" stroke="#ff9900" stroke-linecap="round" stroke-linejoin="round" opacity="1.0" layer="TOP" />
    <line net="15" x1="763" y1="735" x2="763" y2="787" stroke-width="10" stroke="#ff9900" stroke-linecap="round" stroke-linejoin="round" opacity="1.0" layer="TOP" />
    <line net="7" x1="795" y1="1061" x2="831" y2="1061" stroke-width="10" stroke="#ff9900" stroke-linecap="round" stroke-linejoin="round" opacity="1.0" layer="TOP" />
    <line net="7" x1="831" y1="1061" x2="840" y2="1070" stroke-width="10" stroke="#ff9900" stroke-linecap="round" stroke-linejoin="round" opacity="1.0" layer="TOP" />
    <line net="7" x1="840" y1="1070" x2="840" y2="1120" stroke-width="10" stroke="#ff9900" stroke-linecap="round" stroke-linejoin="round" opacity="1.0" layer="TOP" />
    <line net="7" x1="840" y1="1120" x2="855" y2="1135" stroke-width="10" stroke="#ff9900" stroke-linecap="round" stroke-linejoin="round" opacity="1.0" layer="TOP" />
    <line net="7" x1="855" y1="1135" x2="900" y2="1135" stroke-width="10" stroke="#ff9900" stroke-linecap="round" stroke-linejoin="round" opacity="1.0" layer="TOP" />
    <line net="9" x1="900" y1="1050" x2="900" y2="1058" stroke-width="10" stroke="#ff9900" stroke-linecap="round" stroke-linejoin="round" opacity="1.0" layer="TOP" />
    <line net="0" x1="795" y1="1138" x2="836" y2="1180" stroke-width="10" stroke="#ff9900" stroke-linecap="round" stroke-linejoin="round" opacity="1.0" layer="TOP" />
    <line net="0" x1="836" y1="1180" x2="890" y2="1180" stroke-width="10" stroke="#ff9900" stroke-linecap="round" stroke-linejoin="round" opacity="1.0" layer="TOP" />
    <line net="0" x1="1170" y1="1469" x2="1181" y2="1480" stroke-width="10" stroke="#ff9900" stroke-linecap="round" stroke-linejoin="round" opacity="1.0" layer="TOP" />
    <line net="0" x1="1170" y1="1335" x2="1170" y2="1469" stroke-width="10" stroke="#ff9900" stroke-linecap="round" stroke-linejoin="round" opacity="1.0" layer="TOP" />
    <line net="0" x1="1123" y1="1288" x2="1170" y2="1335" stroke-width="10" stroke="#ff9900" stroke-linecap="round" stroke-linejoin="round" opacity="1.0" layer="TOP" />
    <line net="0" x1="1165" y1="1057" x2="1165" y2="1110" stroke-width="10" stroke="#ff9900" stroke-linecap="round" stroke-linejoin="round" opacity="1.0" layer="TOP" />
    <line net="0" x1="1163" y1="1056" x2="1165" y2="1057" stroke-width="10" stroke="#ff9900" stroke-linecap="round" stroke-linejoin="round" opacity="1.0" layer="TOP" />
    <line net="0" x1="1163" y1="957" x2="1163" y2="1056" stroke-width="10" stroke="#ff9900" stroke-linecap="round" stroke-linejoin="round" opacity="1.0" layer="TOP" />
    <line net="0" x1="1171" y1="259" x2="1240" y2="190" stroke-width="10" stroke="#ff9900" stroke-linecap="round" stroke-linejoin="round" opacity="1.0" layer="TOP" />
    <line net="15" x1="740" y1="1380" x2="890" y2="1380" stroke-width="10" stroke="#ff9900" stroke-linecap="round" stroke-linejoin="round" opacity="1.0" layer="TOP" />
    <line net="15" x1="730" y1="1370" x2="740" y2="1380" stroke-width="10" stroke="#ff9900" stroke-linecap="round" stroke-linejoin="round" opacity="1.0" layer="TOP" />
    <line net="9" x1="900" y1="1050" x2="970" y2="980" stroke-width="10" stroke="#ff9900" stroke-linecap="round" stroke-linejoin="round" opacity="1.0" layer="TOP" />
    <line net="15" x1="900" y1="1280" x2="900" y2="1370" stroke-width="10" stroke="#ff9900" stroke-linecap="round" stroke-linejoin="round" opacity="1.0" layer="TOP" />
    <line net="15" x1="890" y1="1380" x2="900" y2="1370" stroke-width="10" stroke="#ff9900" stroke-linecap="round" stroke-linejoin="round" opacity="1.0" layer="TOP" />
    <line net="15" x1="900" y1="1280" x2="910" y2="1269" stroke-width="10" stroke="#ff9900" stroke-linecap="round" stroke-linejoin="round" opacity="1.0" layer="TOP" />
    <line net="15" x1="910" y1="1269" x2="960" y2="1269" stroke-width="10" stroke="#ff9900" stroke-linecap="round" stroke-linejoin="round" opacity="1.0" layer="TOP" />
    <line net="0" x1="890" y1="1180" x2="920" y2="1210" stroke-width="10" stroke="#ff9900" stroke-linecap="round" stroke-linejoin="round" opacity="1.0" layer="TOP" />
    <line net="0" x1="920" y1="1210" x2="940" y2="1230" stroke-width="10" stroke="#ff9900" stroke-linecap="round" stroke-linejoin="round" opacity="1.0" layer="TOP" />
    <line net="0" x1="940" y1="1230" x2="960" y2="1230" stroke-width="10" stroke="#ff9900" stroke-linecap="round" stroke-linejoin="round" opacity="1.0" layer="TOP" />
    <line net="17" x1="841" y1="1250" x2="960" y2="1250" stroke-width="10" stroke="#ff9900" stroke-linecap="round" stroke-linejoin="round" opacity="1.0" layer="TOP" />
    <line net="3" x1="930" y1="1300" x2="930" y2="1320" stroke-width="10" stroke="#ff9900" stroke-linecap="round" stroke-linejoin="round" opacity="1.0" layer="TOP" />
    <line net="3" x1="930" y1="1300" x2="940" y2="1289" stroke-width="10" stroke="#ff9900" stroke-linecap="round" stroke-linejoin="round" opacity="1.0" layer="TOP" />
    <line net="3" x1="940" y1="1289" x2="960" y2="1289" stroke-width="10" stroke="#ff9900" stroke-linecap="round" stroke-linejoin="round" opacity="1.0" layer="TOP" />
    <line net="0" x1="990" y1="1260" x2="1029" y2="1260" stroke-width="10" stroke="#ff9900" stroke-linecap="round" stroke-linejoin="round" opacity="1.0" layer="TOP" />
    <line net="0" x1="990" y1="1278" x2="990" y2="1291" stroke-width="10" stroke="#ff9900" stroke-linecap="round" stroke-linejoin="round" opacity="1.0" layer="TOP" />
    <line net="0" x1="977" y1="1304" x2="977" y2="1315" stroke-width="10" stroke="#ff9900" stroke-linecap="round" stroke-linejoin="round" opacity="1.0" layer="TOP" />
    <line net="0" x1="977" y1="1304" x2="990" y2="1291" stroke-width="10" stroke="#ff9900" stroke-linecap="round" stroke-linejoin="round" opacity="1.0" layer="TOP" />
    <line net="10" x1="848" y1="1450" x2="920" y2="1450" stroke-width="10" stroke="#ff9900" stroke-linecap="round" stroke-linejoin="round" opacity="1.0" layer="TOP" />
    <line net="10" x1="920" y1="1450" x2="930" y2="1440" stroke-width="10" stroke="#ff9900" stroke-linecap="round" stroke-linejoin="round" opacity="1.0" layer="TOP" />
    <line net="10" x1="930" y1="1380" x2="930" y2="1440" stroke-width="10" stroke="#ff9900" stroke-linecap="round" stroke-linejoin="round" opacity="1.0" layer="TOP" />
    <line net="10" x1="930" y1="1380" x2="940" y2="1370" stroke-width="10" stroke="#ff9900" stroke-linecap="round" stroke-linejoin="round" opacity="1.0" layer="TOP" />
    <line net="10" x1="940" y1="1370" x2="980" y2="1370" stroke-width="10" stroke="#ff9900" stroke-linecap="round" stroke-linejoin="round" opacity="1.0" layer="TOP" />
    <line net="10" x1="980" y1="1370" x2="997" y2="1352" stroke-width="10" stroke="#ff9900" stroke-linecap="round" stroke-linejoin="round" opacity="1.0" layer="TOP" />
    <line net="3" x1="771" y1="1450" x2="771" y2="1518" stroke-width="10" stroke="#ff9900" stroke-linecap="round" stroke-linejoin="round" opacity="1.0" layer="TOP" />
    <line net="3" x1="770" y1="1520" x2="771" y2="1518" stroke-width="10" stroke="#ff9900" stroke-linecap="round" stroke-linejoin="round" opacity="1.0" layer="TOP" />
    <line net="0" x1="1163" y1="957" x2="1171" y2="950" stroke-width="10" stroke="#ff9900" stroke-linecap="round" stroke-linejoin="round" opacity="1.0" layer="TOP" />
    <line net="9" x1="990" y1="190" x2="990" y2="270" stroke-width="10" stroke="#ff9900" stroke-linecap="round" stroke-linejoin="round" opacity="1.0" layer="TOP" />
    <line net="9" x1="990" y1="270" x2="1049" y2="329" stroke-width="10" stroke="#ff9900" stroke-linecap="round" stroke-linejoin="round" opacity="1.0" layer="TOP" />
    <line net="9" x1="770" y1="661" x2="838" y2="661" stroke-width="10" stroke="#ff9900" stroke-linecap="round" stroke-linejoin="round" opacity="1.0" layer="TOP" />
    <line net="9" x1="1000" y1="950" x2="1049" y2="950" stroke-width="10" stroke="#ff9900" stroke-linecap="round" stroke-linejoin="round" opacity="1.0" layer="TOP" />
    <line net="9" x1="970" y1="980" x2="1000" y2="950" stroke-width="10" stroke="#ff9900" stroke-linecap="round" stroke-linejoin="round" opacity="1.0" layer="TOP" />
    <line net="9" x1="1049" y1="329" x2="1049" y2="950" stroke-width="10" stroke="#ff9900" stroke-linecap="round" stroke-linejoin="round" opacity="1.0" layer="TOP" />
    <line net="9" x1="1049" y1="950" x2="1049" y2="991" stroke-width="10" stroke="#ff9900" stroke-linecap="round" stroke-linejoin="round" opacity="1.0" layer="TOP" />
    <line net="9" x1="1049" y1="991" x2="1083" y2="1026" stroke-width="10" stroke="#ff9900" stroke-linecap="round" stroke-linejoin="round" opacity="1.0" layer="TOP" />
    <line net="3" x1="1026" y1="1315" x2="1026" y2="1396" stroke-width="10" stroke="#ff9900" stroke-linecap="round" stroke-linejoin="round" opacity="1.0" layer="TOP" />
    <line net="3" x1="1026" y1="1396" x2="1059" y2="1429" stroke-width="10" stroke="#ff9900" stroke-linecap="round" stroke-linejoin="round" opacity="1.0" layer="TOP" />
    <line net="3" x1="990" y1="2390" x2="1059" y2="2321" stroke-width="10" stroke="#ff9900" stroke-linecap="round" stroke-linejoin="round" opacity="1.0" layer="TOP" />
    <line net="3" x1="1059" y1="1429" x2="1059" y2="2321" stroke-width="10" stroke="#ff9900" stroke-linecap="round" stroke-linejoin="round" opacity="1.0" layer="TOP" />
    <line net="0" x1="1150" y1="2320" x2="1220" y2="2390" stroke-width="10" stroke="#ff9900" stroke-linecap="round" stroke-linejoin="round" opacity="1.0" layer="TOP" />
    <line net="0" x1="1150" y1="1600" x2="1150" y2="2320" stroke-width="10" stroke="#ff9900" stroke-linecap="round" stroke-linejoin="round" opacity="1.0" layer="TOP" />
    <line net="0" x1="1150" y1="1600" x2="1181" y2="1569" stroke-width="10" stroke="#ff9900" stroke-linecap="round" stroke-linejoin="round" opacity="1.0" layer="TOP" />
    <line net="0" x1="1181" y1="1480" x2="1181" y2="1569" stroke-width="10" stroke="#ff9900" stroke-linecap="round" stroke-linejoin="round" opacity="1.0" layer="TOP" />
    <line net="0" x1="771" y1="1328" x2="840" y2="1328" stroke-width="10" stroke="#ff9900" stroke-linecap="round" stroke-linejoin="round" opacity="1.0" layer="TOP" />
    <line net="0" x1="770" y1="1330" x2="771" y2="1328" stroke-width="10" stroke="#ff9900" stroke-linecap="round" stroke-linejoin="round" opacity="1.0" layer="TOP" />
    <line net="0" x1="1240" y1="130" x2="1240" y2="190" stroke-width="10" stroke="#ff9900" stroke-linecap="round" stroke-linejoin="round" opacity="1.0" layer="TOP" />
    <line net="0" x1="1200" y1="90" x2="1240" y2="130" stroke-width="10" stroke="#ff9900" stroke-linecap="round" stroke-linejoin="round" opacity="1.0" layer="TOP" />
    <line net="0" x1="735" y1="95" x2="740" y2="90" stroke-width="10" stroke="#ff9900" stroke-linecap="round" stroke-linejoin="round" opacity="1.0" layer="TOP" />
    <line net="0" x1="710" y1="95" x2="735" y2="95" stroke-width="10" stroke="#ff9900" stroke-linecap="round" stroke-linejoin="round" opacity="1.0" layer="TOP" />
    <line net="0" x1="710" y1="95" x2="715" y2="90" stroke-width="10" stroke="#ff9900" stroke-linecap="round" stroke-linejoin="round" opacity="1.0" layer="TOP" />
    <line net="0" x1="715" y1="45" x2="715" y2="90" stroke-width="10" stroke="#ff9900" stroke-linecap="round" stroke-linejoin="round" opacity="1.0" layer="TOP" />
    <line net="0" x1="715" y1="45" x2="740" y2="45" stroke-width="10" stroke="#ff9900" stroke-linecap="round" stroke-linejoin="round" opacity="1.0" layer="TOP" />
    <line net="0" x1="755" y1="60" x2="1285" y2="60" stroke-width="10" stroke="#ff9900" stroke-linecap="round" stroke-linejoin="round" opacity="1.0" layer="TOP" />
    <line net="0" x1="1285" y1="60" x2="1400" y2="175" stroke-width="10" stroke="#ff9900" stroke-linecap="round" stroke-linejoin="round" opacity="1.0" layer="TOP" />
    <line net="0" x1="1400" y1="175" x2="1400" y2="525" stroke-width="10" stroke="#ff9900" stroke-linecap="round" stroke-linejoin="round" opacity="1.0" layer="TOP" />
    <line net="0" x1="1315" y1="610" x2="1400" y2="525" stroke-width="10" stroke="#ff9900" stroke-linecap="round" stroke-linejoin="round" opacity="1.0" layer="TOP" />
    <line net="0" x1="729" y1="90" x2="740" y2="90" stroke-width="10" stroke="#ff9900" stroke-linecap="round" stroke-linejoin="round" opacity="1.0" layer="TOP" />
    <line net="0" x1="740" y1="90" x2="1200" y2="90" stroke-width="10" stroke="#ff9900" stroke-linecap="round" stroke-linejoin="round" opacity="1.0" layer="TOP" />
    <line net="0" x1="1250" y1="610" x2="1315" y2="610" stroke-width="10" stroke="#ff9900" stroke-linecap="round" stroke-linejoin="round" opacity="1.0" layer="TOP" />
    <line net="0" x1="740" y1="45" x2="755" y2="60" stroke-width="10" stroke="#ff9900" stroke-linecap="round" stroke-linejoin="round" opacity="1.0" layer="TOP" />
    <line net="0" x1="695" y1="45" x2="715" y2="45" stroke-width="10" stroke="#ff9900" stroke-linecap="round" stroke-linejoin="round" opacity="1.0" layer="TOP" />
    <line net="0" x1="990" y1="1230" x2="997" y2="1222" stroke-width="10" stroke="#ff9900" stroke-linecap="round" stroke-linejoin="round" opacity="1.0" layer="TOP" />
    <line net="0" x1="997" y1="1204" x2="997" y2="1222" stroke-width="10" stroke="#ff9900" stroke-linecap="round" stroke-linejoin="round" opacity="1.0" layer="TOP" />
    <line net="0" x1="990" y1="1230" x2="990" y2="1242" stroke-width="10" stroke="#ff9900" stroke-linecap="round" stroke-linejoin="round" opacity="1.0" layer="TOP" />
    <line net="7" x1="977" y1="1147" x2="977" y2="1204" stroke-width="10" stroke="#ff9900" stroke-linecap="round" stroke-linejoin="round" opacity="1.0" layer="TOP" />
    <line net="7" x1="968" y1="1138" x2="977" y2="1147" stroke-width="10" stroke="#ff9900" stroke-linecap="round" stroke-linejoin="round" opacity="1.0" layer="TOP" />
    <line net="0" x1="1128" y1="1129" x2="1175" y2="1129" stroke-width="10" stroke="#ff9900" stroke-linecap="round" stroke-linejoin="round" opacity="1.0" layer="TOP" />
    <line net="9" x1="1052" y1="1129" x2="1099" y2="1129" stroke-width="10" stroke="#ff9900" stroke-linecap="round" stroke-linejoin="round" opacity="1.0" layer="TOP" />
    <line net="0" x1="1129" y1="1399" x2="1176" y2="1399" stroke-width="10" stroke="#ff9900" stroke-linecap="round" stroke-linejoin="round" opacity="1.0" layer="TOP" />
    <line net="3" x1="1053" y1="1399" x2="1100" y2="1399" stroke-width="10" stroke="#ff9900" stroke-linecap="round" stroke-linejoin="round" opacity="1.0" layer="TOP" />
    <line net="9" x1="1026" y1="919" x2="1071" y2="919" stroke-width="10" stroke="#ff9900" stroke-linecap="round" stroke-linejoin="round" opacity="1.0" layer="TOP" />
    <line net="0" x1="1148" y1="919" x2="1193" y2="919" stroke-width="10" stroke="#ff9900" stroke-linecap="round" stroke-linejoin="round" opacity="1.0" layer="TOP" />
    <line net="9" x1="1070" y1="1005" x2="1070" y2="1054" stroke-width="10" stroke="#ff9900" stroke-linecap="round" stroke-linejoin="round" opacity="1.0" layer="TOP" />
    <line net="0" x1="1150" y1="1005" x2="1150" y2="1054" stroke-width="10" stroke="#ff9900" stroke-linecap="round" stroke-linejoin="round" opacity="1.0" layer="TOP" />
    <line net="15" x1="762" y1="711" x2="762" y2="758" stroke-width="10" stroke="#ff9900" stroke-linecap="round" stroke-linejoin="round" opacity="1.0" layer="TOP" />
    <line net="9" x1="762" y1="635" x2="762" y2="682" stroke-width="10" stroke="#ff9900" stroke-linecap="round" stroke-linejoin="round" opacity="1.0" layer="TOP" />
    <line net="0" x1="839" y1="1302" x2="839" y2="1349" stroke-width="10" stroke="#ff9900" stroke-linecap="round" stroke-linejoin="round" opacity="1.0" layer="TOP" />
    <line net="17" x1="839" y1="1226" x2="839" y2="1273" stroke-width="10" stroke="#ff9900" stroke-linecap="round" stroke-linejoin="round" opacity="1.0" layer="TOP" />
    <rect comp="1" net="3" pin="1" x="1056.6" y="1371.1" width="44" height="57" stroke-width="0" stroke="#ff9900" fill="#ff9900" opacity="1.0" layer="TOP" />
    <rect comp="1" net="0" pin="2" x="1127.6" y="1371.1" width="44" height="57" stroke-width="0" stroke="#ff9900" fill="#ff9900" opacity="1.0" layer="TOP" />
    <rect comp="0" net="9" pin="1" x="1056.1" y="1100.9" width="44" height="57" stroke-width="0" stroke="#ff9900" fill="#ff9900" opacity="1.0" layer="TOP" />
    <rect comp="0" net="0" pin="2" x="1127.1" y="1100.9" width="44" height="57" stroke-width="0" stroke="#ff9900" fill="#ff9900" opacity="1.0" layer="TOP" />
    <rect comp="12" net="17" pin="1" x="828.0" y="1259" width="24" height="22" stroke-width="0" stroke="#ff9900" fill="#ff9900" opacity="1.0" layer="TOP" />
    <rect comp="12" net="0" pin="2" x="828.0" y="1292" width="24" height="22" stroke-width="0" stroke="#ff9900" fill="#ff9900" opacity="1.0" layer="TOP" />
    <rect comp="13" net="3" pin="1" x="1034.3" y="1451.3" width="44" height="106" stroke-width="0" stroke="#ff9900" fill="#ff9900" opacity="1.0" layer="TOP" />
    <rect comp="13" net="0" pin="2" x="1152.3" y="1451.3" width="44" height="106" stroke-width="0" stroke="#ff9900" fill="#ff9900" opacity="1.0" layer="TOP" />
    <rect comp="14" net="9" pin="1" x="1033.5" y="877.7" width="44" height="106" stroke-width="0" stroke="#ff9900" fill="#ff9900" opacity="1.0" layer="TOP" />
    <rect comp="14" net="0" pin="2" x="1151.5" y="877.7" width="44" height="106" stroke-width="0" stroke="#ff9900" fill="#ff9900" opacity="1.0" layer="TOP" />
    <rect comp="11" net="9" pin="1" x="1068.2" y="1010.0" width="26" height="38" stroke-width="0" stroke="#ff9900" fill="#ff9900" opacity="1.0" layer="TOP" />
    <rect comp="11" net="0" pin="2" x="1123.2" y="1010.0" width="26" height="38" stroke-width="0" stroke="#ff9900" fill="#ff9900" opacity="1.0" layer="TOP" />
    <circle comp="17" net="0" pin="1" cx="1219.4" cy="2389.2" r="32" stroke-width="0" stroke="#ff9900" fill="#ff9900" layer="TOP" opacity="1.0" />
    <circle comp="19" net="0" pin="1" cx="1239.6" cy="188.9" r="32" stroke-width="0" stroke="#ff9900" fill="#ff9900" layer="TOP" opacity="1.0" />
    <rect comp="7" net="13" pin="1" x="1257.8" y="1286.8" width="145.6" height="38.5" stroke-width="0" stroke="#ff9900" fill="#ff9900" opacity="1.0" layer="TOP" />
    <rect comp="7" net="14" pin="2" x="1257.8" y="1193.5" width="145.6" height="38.5" stroke-width="0" stroke="#ff9900" fill="#ff9900" opacity="1.0" layer="TOP" />
    <rect comp="20" net="3" pin="1" x="790.5" y="1444.7" width="14" height="13" stroke-width="0" stroke="#ff9900" fill="#ff9900" opacity="1.0" layer="TOP" />
    <rect comp="20" net="10" pin="2" x="813.5" y="1444.7" width="14" height="13" stroke-width="0" stroke="#ff9900" fill="#ff9900" opacity="1.0" layer="TOP" />
    <rect comp="9" net="7" pin="1" x="772.3" y="1058.9" width="38" height="26" stroke-width="0" stroke="#ff9900" fill="#ff9900" opacity="1.0" layer="TOP" />
    <rect comp="9" net="0" pin="2" x="772.3" y="1113.9" width="38" height="26" stroke-width="0" stroke="#ff9900" fill="#ff9900" opacity="1.0" layer="TOP" />
    <rect comp="8" net="9" pin="1" x="880.6" y="1055.9" width="38" height="26" stroke-width="0" stroke="#ff9900" fill="#ff9900" opacity="1.0" layer="TOP" />
    <rect comp="8" net="7" pin="2" x="880.6" y="1110.9" width="38" height="26" stroke-width="0" stroke="#ff9900" fill="#ff9900" opacity="1.0" layer="TOP" />
    <rect comp="3" net="9" pin="1" x="743" y="655.8" width="38" height="26" stroke-width="0" stroke="#ff9900" fill="#ff9900" opacity="1.0" layer="TOP" />
    <rect comp="3" net="15" pin="2" x="743" y="710.8" width="38" height="26" stroke-width="0" stroke="#ff9900" fill="#ff9900" opacity="1.0" layer="TOP" />
    <circle comp="2" net="3" pin="1" cx="156.9" cy="1357.7" r="32" stroke-width="0" stroke="#ff9900" fill="#ff9900" layer="TOP" opacity="1.0" />
    <rect comp="10" net="3" pin="1" x="948.8" y="1284.1" width="23.6" height="9.4" stroke-width="0" stroke="#ff9900" fill="#ff9900" opacity="1.0" layer="TOP" />
    <rect comp="10" net="15" pin="2" x="948.8" y="1264.4" width="23.6" height="9.4" stroke-width="0" stroke="#ff9900" fill="#ff9900" opacity="1.0" layer="TOP" />
    <rect comp="10" net="17" pin="3" x="948.8" y="1244.7" width="23.6" height="9.4" stroke-width="0" stroke="#ff9900" fill="#ff9900" opacity="1.0" layer="TOP" />
    <rect comp="10" net="0" pin="4" x="948.8" y="1225" width="23.6" height="9.4" stroke-width="0" stroke="#ff9900" fill="#ff9900" opacity="1.0" layer="TOP" />
    <rect comp="10" net="7" pin="5" x="972.6" y="1192.4" width="9.4" height="23.6" stroke-width="0" stroke="#ff9900" fill="#ff9900" opacity="1.0" layer="TOP" />
    <rect comp="10" net="0" pin="6" x="992.3" y="1192.4" width="9.4" height="23.6" stroke-width="0" stroke="#ff9900" fill="#ff9900" opacity="1.0" layer="TOP" />
    <rect comp="10" net="9" pin="7" x="1009.8" y="1190.4" width="33.4" height="27.5" stroke-width="0" stroke="#ff9900" fill="#ff9900" opacity="1.0" layer="TOP" />
    <rect comp="10" net="9" pin="8" x="1009.8" y="1190.4" width="33.4" height="27.5" stroke-width="0" stroke="#ff9900" fill="#ff9900" opacity="1.0" layer="TOP" />
    <rect comp="10" net="14" pin="9" x="1007.8" y="1232.7" width="57.0" height="13.7" stroke-width="0" stroke="#ff9900" fill="#ff9900" opacity="1.0" layer="TOP" />
    <rect comp="10" net="0" pin="10" x="994" y="1252.4" width="70.8" height="13.7" stroke-width="0" stroke="#ff9900" fill="#ff9900" opacity="1.0" layer="TOP" />
    <rect comp="10" net="13" pin="11" x="1007.8" y="1272.1" width="57.0" height="13.7" stroke-width="0" stroke="#ff9900" fill="#ff9900" opacity="1.0" layer="TOP" />
    <rect comp="10" net="3" pin="12" x="1009.8" y="1300.6" width="33.4" height="27.5" stroke-width="0" stroke="#ff9900" fill="#ff9900" opacity="1.0" layer="TOP" />
    <rect comp="10" net="3" pin="13" x="1009.8" y="1300.6" width="33.4" height="27.5" stroke-width="0" stroke="#ff9900" fill="#ff9900" opacity="1.0" layer="TOP" />
    <rect comp="10" net="10" pin="14" x="992.3" y="1302.6" width="9.4" height="23.6" stroke-width="0" stroke="#ff9900" fill="#ff9900" opacity="1.0" layer="TOP" />
    <rect comp="10" net="0" pin="15" x="972.6" y="1302.6" width="9.4" height="23.6" stroke-width="0" stroke="#ff9900" fill="#ff9900" opacity="1.0" layer="TOP" />
    <circle comp="16" net="3" pin="1" cx="990.1" cy="2389.2" r="32" stroke-width="0" stroke="#ff9900" fill="#ff9900" layer="TOP" opacity="1.0" />
    <circle comp="18" net="9" pin="1" cx="990.1" cy="188.9" r="32" stroke-width="0" stroke="#ff9900" fill="#ff9900" layer="TOP" opacity="1.0" />
    <circle net="0" cx="1490" cy="1170" r="8" r1="12" r2="4" stroke-width="8" stroke="#ff9900" fill="#ffffff" opacity="1" layer="MULTILAYER" />
    <circle net="3" cx="930" cy="1320" r="8" r1="12" r2="4" stroke-width="8" stroke="#ff9900" fill="#ffffff" opacity="1" layer="MULTILAYER" />
    <circle net="3" cx="1026" cy="1370" r="8" r1="12" r2="4" stroke-width="8" stroke="#ff9900" fill="#ffffff" opacity="1" layer="MULTILAYER" />
    <circle net="0" cx="920" cy="1210" r="8" r1="12" r2="4" stroke-width="8" stroke="#ff9900" fill="#ffffff" opacity="1" layer="MULTILAYER" />
    <circle net="0" cx="1490" cy="1250" r="8" r1="12" r2="4" stroke-width="8" stroke="#ff9900" fill="#ffffff" opacity="1" layer="MULTILAYER" />
    <circle net="14" cx="1320" cy="1180" r="8" r1="12" r2="4" stroke-width="8" stroke="#ff9900" fill="#ffffff" opacity="1" layer="MULTILAYER" />
    <circle net="14" cx="1290" cy="1180" r="8" r1="12" r2="4" stroke-width="8" stroke="#ff9900" fill="#ffffff" opacity="1" layer="MULTILAYER" />
    <circle net="14" cx="1260" cy="1200" r="8" r1="12" r2="4" stroke-width="8" stroke="#ff9900" fill="#ffffff" opacity="1" layer="MULTILAYER" />
    <circle net="14" cx="1260" cy="1230" r="8" r1="12" r2="4" stroke-width="8" stroke="#ff9900" fill="#ffffff" opacity="1" layer="MULTILAYER" />
    <circle net="13" cx="1290" cy="1340" r="8" r1="12" r2="4" stroke-width="8" stroke="#ff9900" fill="#ffffff" opacity="1" layer="MULTILAYER" />
    <circle net="13" cx="1260" cy="1290" r="8" r1="12" r2="4" stroke-width="8" stroke="#ff9900" fill="#ffffff" opacity="1" layer="MULTILAYER" />
    <circle net="13" cx="1260" cy="1320" r="8" r1="12" r2="4" stroke-width="8" stroke="#ff9900" fill="#ffffff" opacity="1" layer="MULTILAYER" />
    <circle net="13" cx="1320" cy="1340" r="8" r1="12" r2="4" stroke-width="8" stroke="#ff9900" fill="#ffffff" opacity="1" layer="MULTILAYER" />
    <circle net="13" cx="1060" cy="1283" r="6" r1="9" r2="3" stroke-width="6" stroke="#ff9900" fill="#ffffff" opacity="1" layer="MULTILAYER" />
    <circle net="13" cx="1040" cy="1283" r="6" r1="9" r2="3" stroke-width="6" stroke="#ff9900" fill="#ffffff" opacity="1" layer="MULTILAYER" />
    <circle net="13" cx="1020" cy="1284" r="6" r1="9" r2="3" stroke-width="6" stroke="#ff9900" fill="#ffffff" opacity="1" layer="MULTILAYER" />
    <circle net="14" cx="1060" cy="1235" r="6" r1="9" r2="3" stroke-width="6" stroke="#ff9900" fill="#ffffff" opacity="1" layer="MULTILAYER" />
    <circle net="14" cx="1040" cy="1235" r="6" r1="9" r2="3" stroke-width="6" stroke="#ff9900" fill="#ffffff" opacity="1" layer="MULTILAYER" />
    <circle net="14" cx="1020" cy="1235" r="6" r1="9" r2="3" stroke-width="6" stroke="#ff9900" fill="#ffffff" opacity="1" layer="MULTILAYER" />
    <circle net="9" cx="1030" cy="980" r="8" r1="12" r2="4" stroke-width="8" stroke="#ff9900" fill="#ffffff" opacity="1" layer="MULTILAYER" />
    <circle net="0" cx="770" cy="1330" r="8" r1="12" r2="4" stroke-width="8" stroke="#ff9900" fill="#ffffff" opacity="1" layer="MULTILAYER" />
    <circle net="0" cx="990" cy="1260" r="7" r1="10" r2="4" stroke-width="6" stroke="#ff9900" fill="#ffffff" opacity="1" layer="MULTILAYER" />
    <circle net="0" cx="990" cy="1242" r="7" r1="10" r2="4" stroke-width="6" stroke="#ff9900" fill="#ffffff" opacity="1" layer="MULTILAYER" />
    <circle net="3" cx="1026" cy="1396" r="8" r1="12" r2="4" stroke-width="8" stroke="#ff9900" fill="#ffffff" opacity="1" layer="MULTILAYER" />
    <circle net="0" cx="1292" cy="1888" r="8" r1="12" r2="4" stroke-width="8" stroke="#ff9900" fill="#ffffff" opacity="1" layer="MULTILAYER" />
    <circle net="0" cx="1292" cy="1944" r="8" r1="12" r2="4" stroke-width="8" stroke="#ff9900" fill="#ffffff" opacity="1" layer="MULTILAYER" />
    <circle net="0" cx="1292" cy="1915" r="8" r1="12" r2="4" stroke-width="8" stroke="#ff9900" fill="#ffffff" opacity="1" layer="MULTILAYER" />
    <circle net="0" cx="1250" cy="830" r="8" r1="12" r2="4" stroke-width="8" stroke="#ff9900" fill="#ffffff" opacity="1" layer="MULTILAYER" />
    <circle net="0" cx="1250" cy="690" r="8" r1="12" r2="4" stroke-width="8" stroke="#ff9900" fill="#ffffff" opacity="1" layer="MULTILAYER" />
    <circle net="0" cx="1270" cy="1570" r="8" r1="12" r2="4" stroke-width="8" stroke="#ff9900" fill="#ffffff" opacity="1" layer="MULTILAYER" />
    <circle net="0" cx="1270" cy="1720" r="8" r1="12" r2="4" stroke-width="8" stroke="#ff9900" fill="#ffffff" opacity="1" layer="MULTILAYER" />
    <circle net="0" cx="1270" cy="1490" r="8" r1="12" r2="4" stroke-width="8" stroke="#ff9900" fill="#ffffff" opacity="1" layer="MULTILAYER" />
    <circle net="0" cx="1270" cy="1760" r="8" r1="12" r2="4" stroke-width="8" stroke="#ff9900" fill="#ffffff" opacity="1" layer="MULTILAYER" />
    <circle net="0" cx="1270" cy="1450" r="8" r1="12" r2="4" stroke-width="8" stroke="#ff9900" fill="#ffffff" opacity="1" layer="MULTILAYER" />
    <circle net="0" cx="1270" cy="1610" r="8" r1="12" r2="4" stroke-width="8" stroke="#ff9900" fill="#ffffff" opacity="1" layer="MULTILAYER" />
    <circle net="0" cx="790" cy="1310" r="8" r1="12" r2="4" stroke-width="8" stroke="#ff9900" fill="#ffffff" opacity="1" layer="MULTILAYER" />
    <circle net="0" cx="790" cy="1350" r="8" r1="12" r2="4" stroke-width="8" stroke="#ff9900" fill="#ffffff" opacity="1" layer="MULTILAYER" />
    <circle net="0" cx="1490" cy="1210" r="8" r1="12" r2="4" stroke-width="8" stroke="#ff9900" fill="#ffffff" opacity="1" layer="MULTILAYER" />
    <circle net="9" cx="1030" cy="1170" r="8" r1="12" r2="4" stroke-width="8" stroke="#ff9900" fill="#ffffff" opacity="1" layer="MULTILAYER" />
    <circle net="3" cx="1025" cy="1430" r="8" r1="12" r2="4" stroke-width="8" stroke="#ff9900" fill="#ffffff" opacity="1" layer="MULTILAYER" />
    <circle net="9" cx="1030" cy="1140" r="8" r1="12" r2="4" stroke-width="8" stroke="#ff9900" fill="#ffffff" opacity="1" layer="MULTILAYER" />
    <circle net="0" cx="990" cy="1278" r="7" r1="10" r2="4" stroke-width="6" stroke="#ff9900" fill="#ffffff" opacity="1" layer="MULTILAYER" />
    <circle net="3" cx="1026" cy="1340" r="8" r1="12" r2="4" stroke-width="8" stroke="#ff9900" fill="#ffffff" opacity="1" layer="MULTILAYER" />
    <circle net="0" cx="1270" cy="1530" r="8" r1="12" r2="4" stroke-width="8" stroke="#ff9900" fill="#ffffff" opacity="1" layer="MULTILAYER" />
    <circle net="0" cx="1270" cy="1680" r="8" r1="12" r2="4" stroke-width="8" stroke="#ff9900" fill="#ffffff" opacity="1" layer="MULTILAYER" />
    <circle net="0" cx="1250" cy="1030" r="8" r1="12" r2="4" stroke-width="8" stroke="#ff9900" fill="#ffffff" opacity="1" layer="MULTILAYER" />
    <circle net="0" cx="1250" cy="1070" r="8" r1="12" r2="4" stroke-width="8" stroke="#ff9900" fill="#ffffff" opacity="1" layer="MULTILAYER" />
    <circle net="0" cx="1250" cy="950" r="8" r1="12" r2="4" stroke-width="8" stroke="#ff9900" fill="#ffffff" opacity="1" layer="MULTILAYER" />
    <circle net="0" cx="1250" cy="990" r="8" r1="12" r2="4" stroke-width="8" stroke="#ff9900" fill="#ffffff" opacity="1" layer="MULTILAYER" />
    <circle net="0" cx="1250" cy="870" r="8" r1="12" r2="4" stroke-width="8" stroke="#ff9900" fill="#ffffff" opacity="1" layer="MULTILAYER" />
    <circle net="0" cx="1250" cy="910" r="8" r1="12" r2="4" stroke-width="8" stroke="#ff9900" fill="#ffffff" opacity="1" layer="MULTILAYER" />
    <circle net="0" cx="1250" cy="730" r="8" r1="12" r2="4" stroke-width="8" stroke="#ff9900" fill="#ffffff" opacity="1" layer="MULTILAYER" />
    <circle net="0" cx="1250" cy="770" r="8" r1="12" r2="4" stroke-width="8" stroke="#ff9900" fill="#ffffff" opacity="1" layer="MULTILAYER" />
    <circle net="0" cx="1250" cy="610" r="8" r1="12" r2="4" stroke-width="8" stroke="#ff9900" fill="#ffffff" opacity="1" layer="MULTILAYER" />
    <circle net="0" cx="1250" cy="640" r="8" r1="12" r2="4" stroke-width="8" stroke="#ff9900" fill="#ffffff" opacity="1" layer="MULTILAYER" />
    <circle net="0" cx="1490" cy="1290" r="8" r1="12" r2="4" stroke-width="8" stroke="#ff9900" fill="#ffffff" opacity="1" layer="MULTILAYER" />
    <circle net="9" cx="1030" cy="1110" r="8" r1="12" r2="4" stroke-width="8" stroke="#ff9900" fill="#ffffff" opacity="1" layer="MULTILAYER" />
    <circle net="3" cx="158" cy="1358" r="58.8" r1="68" r2="49" stroke-width="19" stroke="#ff9900" fill="#ffffff" opacity="1" layer="MULTILAYER" />
    <circle net="3" cx="990" cy="2390" r="58.8" r1="68" r2="49" stroke-width="19" stroke="#ff9900" fill="#ffffff" opacity="1" layer="MULTILAYER" />
    <circle net="0" cx="1220" cy="2390" r="58.8" r1="68" r2="49" stroke-width="19" stroke="#ff9900" fill="#ffffff" opacity="1" layer="MULTILAYER" />
    <circle net="9" cx="990" cy="190" r="58.8" r1="68" r2="49" stroke-width="19" stroke="#ff9900" fill="#ffffff" opacity="1" layer="MULTILAYER" />
    <circle net="0" cx="1240" cy="190" r="58.8" r1="68" r2="49" stroke-width="19" stroke="#ff9900" fill="#ffffff" opacity="1" layer="MULTILAYER" />
  </g>
</svg>

